<?xml version="1.0" encoding="utf-8"?>
<!-- Generator: Adobe Illustrator 17.0.0, SVG Export Plug-In . SVG Version: 6.00 Build 0)  -->
<!DOCTYPE svg PUBLIC "-//W3C//DTD SVG 1.1//EN" "http://www.w3.org/Graphics/SVG/1.1/DTD/svg11.dtd" [
	<!ENTITY ns_extend "http://ns.adobe.com/Extensibility/1.0/">
	<!ENTITY ns_ai "http://ns.adobe.com/AdobeIllustrator/10.0/">
	<!ENTITY ns_graphs "http://ns.adobe.com/Graphs/1.0/">
	<!ENTITY ns_vars "http://ns.adobe.com/Variables/1.0/">
	<!ENTITY ns_imrep "http://ns.adobe.com/ImageReplacement/1.0/">
	<!ENTITY ns_sfw "http://ns.adobe.com/SaveForWeb/1.0/">
	<!ENTITY ns_custom "http://ns.adobe.com/GenericCustomNamespace/1.0/">
	<!ENTITY ns_adobe_xpath "http://ns.adobe.com/XPath/1.0/">
]>
<svg version="1.1" id="Layer_1" xmlns:x="&ns_extend;" xmlns:i="&ns_ai;" xmlns:graph="&ns_graphs;" focusable="false"
	 xmlns="http://www.w3.org/2000/svg" xmlns:xlink="http://www.w3.org/1999/xlink" x="0px" y="0px" width="1280px" height="800px"
	 viewBox="0 0 1280 800" enable-background="new 0 0 1280 800" xml:space="preserve">
<metadata>
	<sfw  xmlns="&ns_sfw;">
		<slices></slices>
		<sliceSourceBounds  width="700" height="700" y="50.5" x="289.5" bottomLeftOrigin="true"></sliceSourceBounds>
	</sfw>
</metadata>
<path fill="#1C6B02" d="M581.406,457.813c0,30.156-21.875,39.688-48.75,39.688h-70.469v-82.656h71.875
	C563.125,415,581.406,427.031,581.406,457.813L581.406,457.813z M569.375,329.219c0-27.656-21.406-34.219-45.156-34.219h-61.875v70
	h66.719C552.656,365,569.375,354.688,569.375,329.219L569.375,329.219z M776.094,365.469c-28.594,0-47.656,17.812-49.531,46.406
	h97.188C821.094,382.969,806.094,365.469,776.094,365.469L776.094,365.469z M990,125v550c0,41.406-33.594,75-75,75H365
	c-41.406,0-75-33.594-75-75V125c0-41.406,33.594-75,75-75h550C956.406,50,990,83.594,990,125z M714.531,289.063h121.563v-29.531
	H714.531V289.063z M647.344,461.406c0-37.656-17.813-70.156-54.688-80.625c26.875-12.813,40.938-27.656,40.938-57.813
	c0-59.688-44.531-74.219-95.938-74.219H396.25v300h145.469C596.25,548.437,647.344,522.344,647.344,461.406z M883.75,438.281
	c0-64.219-37.656-117.813-105.625-117.813c-66.25,0-111.094,49.688-111.094,115c0,67.656,42.656,114.062,111.094,114.062
	c51.875,0,85.469-23.281,101.719-73.125h-52.656C821.406,495,798.125,504.688,780,504.688c-35,0-53.281-20.469-53.281-55.156
	h156.563C883.437,445.938,883.75,442.031,883.75,438.281L883.75,438.281z"/>
</svg>
