<?xml version="1.0" encoding="utf-8"?>
<!-- Generator: Adobe Illustrator 17.0.0, SVG Export Plug-In . SVG Version: 6.00 Build 0)  -->
<!DOCTYPE svg PUBLIC "-//W3C//DTD SVG 1.1//EN" "http://www.w3.org/Graphics/SVG/1.1/DTD/svg11.dtd" [
	<!ENTITY ns_extend "http://ns.adobe.com/Extensibility/1.0/">
	<!ENTITY ns_ai "http://ns.adobe.com/AdobeIllustrator/10.0/">
	<!ENTITY ns_graphs "http://ns.adobe.com/Graphs/1.0/">
	<!ENTITY ns_vars "http://ns.adobe.com/Variables/1.0/">
	<!ENTITY ns_imrep "http://ns.adobe.com/ImageReplacement/1.0/">
	<!ENTITY ns_sfw "http://ns.adobe.com/SaveForWeb/1.0/">
	<!ENTITY ns_custom "http://ns.adobe.com/GenericCustomNamespace/1.0/">
	<!ENTITY ns_adobe_xpath "http://ns.adobe.com/XPath/1.0/">
]>
<svg version="1.1" id="Layer_1" xmlns:x="&ns_extend;" xmlns:i="&ns_ai;" xmlns:graph="&ns_graphs;" focusable="false"
	 xmlns="http://www.w3.org/2000/svg" xmlns:xlink="http://www.w3.org/1999/xlink" x="0px" y="0px" width="1280px" height="800px"
	 viewBox="0 0 1280 800" enable-background="new 0 0 1280 800" xml:space="preserve">
<metadata>
	<sfw  xmlns="&ns_sfw;">
		<slices></slices>
		<sliceSourceBounds  width="775" height="755.637" y="32.363" x="252" bottomLeftOrigin="true"></sliceSourceBounds>
	</sfw>
</metadata>
<path fill="#1C6B02" d="M511.719,620.938c0,3.125-3.594,5.625-8.125,5.625c-5.156,0.469-8.75-2.031-8.75-5.625
	c0-3.125,3.594-5.625,8.125-5.625C507.656,614.844,511.719,617.344,511.719,620.938z M463.125,613.906
	c-1.094,3.125,2.031,6.719,6.719,7.656c4.063,1.563,8.75,0,9.687-3.125c0.938-3.125-2.031-6.719-6.719-8.125
	C468.75,609.219,464.219,610.781,463.125,613.906L463.125,613.906z M532.188,611.25c-4.531,1.094-7.656,4.063-7.188,7.656
	c0.469,3.125,4.531,5.156,9.219,4.063c4.531-1.094,7.656-4.063,7.188-7.188C540.937,612.813,536.719,610.781,532.188,611.25z
	 M635,12.5c-216.719,0-382.5,164.531-382.5,381.25c0,173.281,109.063,321.563,264.844,373.75c20,3.594,27.031-8.75,27.031-18.906
	c0-9.688-0.469-63.125-0.469-95.938c0,0-109.375,23.438-132.344-46.562c0,0-17.813-45.469-43.438-57.188
	c0,0-35.781-24.531,2.5-24.062c0,0,38.906,3.125,60.313,40.312c34.219,60.313,91.563,42.969,113.906,32.656
	c3.594-25,13.75-42.344,25-52.656C482.5,535.469,394.375,522.813,394.375,372.5c0-42.969,11.875-64.531,36.875-92.031
	c-4.063-10.156-17.344-52.031,4.063-106.094c32.656-10.156,107.813,42.188,107.813,42.188c31.25-8.75,64.844-13.281,98.125-13.281
	s66.875,4.531,98.125,13.281c0,0,75.156-52.5,107.813-42.188c21.406,54.219,8.125,95.937,4.063,106.094
	c25,27.656,40.313,49.219,40.313,92.031c0,150.781-92.031,162.812-179.375,172.656c14.375,12.344,26.563,35.781,26.563,72.5
	c0,52.656-0.469,117.813-0.469,130.625c0,10.156,7.188,22.5,27.031,18.906C921.563,715.313,1027.5,567.031,1027.5,393.75
	C1027.5,177.031,851.719,12.5,635,12.5z M404.375,551.406c-2.031,1.563-1.563,5.156,1.094,8.125c2.5,2.5,6.094,3.594,8.125,1.563
	c2.031-1.563,1.563-5.156-1.094-8.125C410,550.469,406.406,549.375,404.375,551.406z M387.5,538.75
	c-1.094,2.031,0.469,4.531,3.594,6.094c2.5,1.563,5.625,1.094,6.719-1.094c1.094-2.031-0.469-4.531-3.594-6.094
	C391.094,536.719,388.594,537.188,387.5,538.75z M438.125,594.375c-2.5,2.031-1.563,6.719,2.031,9.688
	c3.594,3.594,8.125,4.063,10.156,1.563c2.031-2.031,1.094-6.719-2.031-9.688C444.844,592.344,440.156,591.875,438.125,594.375z
	 M420.313,571.406c-2.5,1.563-2.5,5.625,0,9.219c2.5,3.594,6.719,5.156,8.75,3.594c2.5-2.031,2.5-6.094,0-9.688
	C426.875,570.937,422.813,569.375,420.313,571.406L420.313,571.406z"/>
</svg>
