<?xml version="1.0" encoding="utf-8"?>
<!-- Generator: Adobe Illustrator 17.0.0, SVG Export Plug-In . SVG Version: 6.00 Build 0)  -->
<!DOCTYPE svg PUBLIC "-//W3C//DTD SVG 1.1//EN" "http://www.w3.org/Graphics/SVG/1.1/DTD/svg11.dtd" [
	<!ENTITY ns_extend "http://ns.adobe.com/Extensibility/1.0/">
	<!ENTITY ns_ai "http://ns.adobe.com/AdobeIllustrator/10.0/">
	<!ENTITY ns_graphs "http://ns.adobe.com/Graphs/1.0/">
	<!ENTITY ns_vars "http://ns.adobe.com/Variables/1.0/">
	<!ENTITY ns_imrep "http://ns.adobe.com/ImageReplacement/1.0/">
	<!ENTITY ns_sfw "http://ns.adobe.com/SaveForWeb/1.0/">
	<!ENTITY ns_custom "http://ns.adobe.com/GenericCustomNamespace/1.0/">
	<!ENTITY ns_adobe_xpath "http://ns.adobe.com/XPath/1.0/">
]>
<svg version="1.1" id="Layer_1" xmlns:x="&ns_extend;" xmlns:i="&ns_ai;" xmlns:graph="&ns_graphs;" focusable="false"
	 xmlns="http://www.w3.org/2000/svg" xmlns:xlink="http://www.w3.org/1999/xlink" x="0px" y="0px" width="1280px" height="800px"
	 viewBox="0 0 1280 800" enable-background="new 0 0 1280 800" xml:space="preserve">
<metadata>
	<sfw  xmlns="&ns_sfw;">
		<slices></slices>
		<sliceSourceBounds  width="700" height="700" y="50.5" x="289.5" bottomLeftOrigin="true"></sliceSourceBounds>
	</sfw>
</metadata>
<path fill="#1C6B02" d="M940,50H339.844C312.344,50,290,72.656,290,100.469v599.063C290,727.344,312.344,750,339.844,750H940
	c27.5,0,50-22.656,50-50.469V100.469C990,72.656,967.5,50,940,50z M501.563,650h-103.75V315.938h103.906V650H501.563z
	 M449.688,270.313c-33.281,0-60.156-27.031-60.156-60.156S416.406,150,449.688,150c33.125,0,60.156,27.031,60.156,60.156
	C509.844,243.438,482.969,270.313,449.688,270.313z M890.469,650h-103.75V487.5c0-38.75-0.781-88.594-53.906-88.594
	c-54.063,0-62.344,42.187-62.344,85.781V650h-103.75V315.938h99.531v45.625h1.406c13.906-26.25,47.813-53.906,98.281-53.906
	c105,0,124.531,69.219,124.531,159.219V650z"/>
</svg>
