<?xml version="1.0" encoding="utf-8"?>
<!-- Generator: Adobe Illustrator 17.0.0, SVG Export Plug-In . SVG Version: 6.00 Build 0)  -->
<!DOCTYPE svg PUBLIC "-//W3C//DTD SVG 1.1//EN" "http://www.w3.org/Graphics/SVG/1.1/DTD/svg11.dtd" [
	<!ENTITY ns_extend "http://ns.adobe.com/Extensibility/1.0/">
	<!ENTITY ns_ai "http://ns.adobe.com/AdobeIllustrator/10.0/">
	<!ENTITY ns_graphs "http://ns.adobe.com/Graphs/1.0/">
	<!ENTITY ns_vars "http://ns.adobe.com/Variables/1.0/">
	<!ENTITY ns_imrep "http://ns.adobe.com/ImageReplacement/1.0/">
	<!ENTITY ns_sfw "http://ns.adobe.com/SaveForWeb/1.0/">
	<!ENTITY ns_custom "http://ns.adobe.com/GenericCustomNamespace/1.0/">
	<!ENTITY ns_adobe_xpath "http://ns.adobe.com/XPath/1.0/">
]>
<svg version="1.1" id="Layer_1" xmlns:x="&ns_extend;" xmlns:i="&ns_ai;" xmlns:graph="&ns_graphs;" focusable="false"
	 xmlns="http://www.w3.org/2000/svg" xmlns:xlink="http://www.w3.org/1999/xlink" x="0px" y="0px" width="1280px" height="800px"
	 viewBox="0 0 1280 800" enable-background="new 0 0 1280 800" xml:space="preserve">
<metadata>
	<sfw  xmlns="&ns_sfw;">
		<slices></slices>
		<sliceSourceBounds  width="799.997" height="649.745" y="75.627" x="239.5" bottomLeftOrigin="true"></sliceSourceBounds>
	</sfw>
</metadata>
<path fill="#1C6B02" d="M957.766,237.056c0.508,7.106,0.508,14.214,0.508,21.32c0,216.75-164.973,466.497-466.497,466.497
	c-92.894,0-179.188-26.905-251.777-73.603c13.198,1.522,25.888,2.03,39.594,2.03c76.648,0,147.208-25.888,203.553-70.05
	c-72.081-1.523-132.488-48.731-153.3-113.706c10.153,1.522,20.305,2.537,30.966,2.537c14.72,0,29.442-2.031,43.147-5.583
	c-75.127-15.23-131.473-81.219-131.473-160.914v-2.03c21.827,12.183,47.209,19.797,74.111,20.811
	c-44.162-29.442-73.095-79.695-73.095-136.548c0-30.456,8.12-58.375,22.334-82.741c80.711,99.492,202.031,164.466,338.07,171.573
	c-2.537-12.183-4.061-24.872-4.061-37.563c0-90.356,73.097-163.959,163.959-163.959c47.208,0,89.847,19.797,119.797,51.777
	c37.055-7.106,72.587-20.813,104.061-39.594c-12.184,38.072-38.072,70.052-72.081,90.355c32.995-3.552,64.975-12.691,94.416-25.38
	C1017.666,184.772,989.745,213.705,957.766,237.056L957.766,237.056z"/>
</svg>
