<?xml version="1.0" encoding="utf-8"?>
<!-- Generator: Adobe Illustrator 17.0.0, SVG Export Plug-In . SVG Version: 6.00 Build 0)  -->
<!DOCTYPE svg PUBLIC "-//W3C//DTD SVG 1.1//EN" "http://www.w3.org/Graphics/SVG/1.1/DTD/svg11.dtd" [
	<!ENTITY ns_extend "http://ns.adobe.com/Extensibility/1.0/">
	<!ENTITY ns_ai "http://ns.adobe.com/AdobeIllustrator/10.0/">
	<!ENTITY ns_graphs "http://ns.adobe.com/Graphs/1.0/">
	<!ENTITY ns_vars "http://ns.adobe.com/Variables/1.0/">
	<!ENTITY ns_imrep "http://ns.adobe.com/ImageReplacement/1.0/">
	<!ENTITY ns_sfw "http://ns.adobe.com/SaveForWeb/1.0/">
	<!ENTITY ns_custom "http://ns.adobe.com/GenericCustomNamespace/1.0/">
	<!ENTITY ns_adobe_xpath "http://ns.adobe.com/XPath/1.0/">
]>
<svg version="1.1" id="Layer_1" xmlns:x="&ns_extend;" xmlns:i="&ns_ai;" xmlns:graph="&ns_graphs;" focusable="false"
	 xmlns="http://www.w3.org/2000/svg" xmlns:xlink="http://www.w3.org/1999/xlink" x="0px" y="0px" width="1280px" height="800px"
	 viewBox="0 0 1280 800" enable-background="new 0 0 1280 800" xml:space="preserve">
<metadata>
	<sfw  xmlns="&ns_sfw;">
		<slices></slices>
		<sliceSourceBounds  width="853.334" height="600" y="100.5" x="212.833" bottomLeftOrigin="true"></sliceSourceBounds>
	</sfw>
</metadata>
<path fill="#1C6B02" d="M1048.836,193.88c-9.814-36.953-38.73-66.056-75.444-75.933C906.845,100,640,100,640,100
	s-266.844,0-333.392,17.947c-36.714,9.878-65.63,38.98-75.444,75.933c-17.831,66.98-17.831,206.727-17.831,206.727
	s0,139.747,17.831,206.727c9.814,36.953,38.73,64.844,75.444,74.72C373.156,700,640,700,640,700s266.844,0,333.392-17.947
	c36.714-9.877,65.63-37.767,75.444-74.72c17.831-66.98,17.831-206.727,17.831-206.727S1066.667,260.859,1048.836,193.88
	L1048.836,193.88z M552.727,527.486V273.727l223.03,126.883L552.727,527.486L552.727,527.486z"/>
</svg>
